<?xml version="1.0" standalone="no"?>
<!DOCTYPE svg PUBLIC "-//W3C//DTD SVG 20010904//EN" "http://www.w3.org/TR/2001/REC-SVG-20010904/DTD/svg10.dtd">
<svg version="1.0" xmlns="http://www.w3.org/2000/svg" width="40px" height="40px" viewBox="0 0 300.000000 300.000000"
    preserveAspectRatio="xMidYMid meet">
    <g transform="translate(-80.000000,320.000000) scale(0.100000,-0.100000)" fill="#e5e5e5" stroke="none">
        <path d="M1350 2441 c-158 -38 -266 -97 -375 -205 -152 -151 -227 -333 -227
-552 0 -211 77 -400 223 -541 97 -93 180 -145 304 -189 75 -27 89 -29 240 -29
151 0 165 2 240 29 199 71 356 205 445 381 148 291 99 637 -123 881 -178 194
-472 285 -727 225z m482 -310 c53 -23 100 -72 127 -131 19 -41 21 -65 21 -304
0 -255 -8 -336 -34 -336 -6 0 -94 83 -196 185 l-185 185 -42 -42 c-24 -23 -43
-45 -43 -48 0 -4 104 -111 231 -239 l232 -232 -23 -24 c-29 -31 -35 -31 -77 1
-82 63 -108 68 -363 74 -208 5 -240 8 -280 27 -58 26 -97 66 -126 128 -23 49
-24 58 -24 315 0 258 1 266 24 315 27 57 65 96 121 124 37 19 62 20 317 21
250 0 281 -2 320 -19z" />
    </g>
</svg>